<?xml version="1.0" ?><!DOCTYPE svg  PUBLIC '-//W3C//DTD SVG 1.1//EN'  'http://www.w3.org/Graphics/SVG/1.1/DTD/svg11.dtd'><svg enable-background="new 0 0 48 48" height="48px" id="Layer_1" version="1.1" viewBox="0 0 48 48" width="48px" xml:space="preserve" xmlns="http://www.w3.org/2000/svg" xmlns:xlink="http://www.w3.org/1999/xlink"><g><path d="M26.643,14.928c0-0.757-0.551-1.371-1.231-1.371h-2.823c-0.68,0-1.23,0.614-1.23,1.371v1.455h5.285V14.928z   " fill="#231F20"/><path d="M29.215,19.981H18.743c-0.793,0-1.435,0.643-1.435,1.435v10.473c0,0.793,0.642,1.434,1.435,1.434h10.472   c0.793,0,1.435-0.641,1.435-1.434V21.416C30.649,20.624,30.008,19.981,29.215,19.981z M25.446,26.804   c-0.008,0.013-0.005,0.021-0.014,0.034c-0.336,0.501-0.394,0.882-0.401,1.044v1.702c0,0.575-0.467,1.041-1.041,1.041   c-0.576,0-1.042-0.466-1.042-1.041v-1.662c0-0.734-0.528-1.248-0.528-1.248l0.021-0.003c-0.286-0.348-0.473-0.778-0.473-1.265   c0-1.122,0.909-2.031,2.031-2.031s2.031,0.909,2.031,2.031C26.031,25.955,25.801,26.44,25.446,26.804z" fill="#231F20"/><path d="M24,0C10.745,0,0,10.745,0,24s10.745,24,24,24s24-10.745,24-24S37.255,0,24,0z M34.112,34.434   c0,1.201-0.973,2.174-2.175,2.174H16.063c-1.201,0-2.175-0.973-2.175-2.174V18.558c0-1.201,0.974-2.175,2.175-2.175h1.275h2.088   v-2.618c0-1.311,0.955-2.373,2.132-2.373h4.886c1.177,0,2.132,1.063,2.132,2.373v2.618h3.362c1.202,0,2.175,0.974,2.175,2.175   V34.434z" fill="#231F20"/></g></svg>