<?xml version="1.0" ?><!DOCTYPE svg  PUBLIC '-//W3C//DTD SVG 1.1//EN'  'http://www.w3.org/Graphics/SVG/1.1/DTD/svg11.dtd'><svg enable-background="new 0 0 64 64" height="64px" id="Layer_1" version="1.1" viewBox="0 0 64 64" width="64px" xml:space="preserve" xmlns="http://www.w3.org/2000/svg" xmlns:xlink="http://www.w3.org/1999/xlink"><g id="keywords"><path d="M32,13c-2.757,0-5,2.243-5,5s2.243,5,5,5s5-2.243,5-5S34.757,13,32,13z M32,22c-2.209,0-4-1.791-4-4   s1.791-4,4-4s4,1.791,4,4S34.209,22,32,22z" fill="#37474f"/><path d="M45,23c0-7.181-5.819-13-13-13s-13,5.819-13,13c0,5.015,2.842,9.358,7,11.526V54l5,5l7-9l-3-3v-6l3-3   v-3.474C42.158,32.358,45,28.015,45,23z M30.906,57.492L30,56.585V35c0-0.551,0.449-1,1-1s1,0.449,1,1v21.085L30.906,57.492z    M37.538,33.64L37,33.92v0.606v3.06l-2.707,2.707L34,40.586V41v6v0.414l0.293,0.293l2.375,2.376L33,54.8V35c0-1.103-0.897-2-2-2   s-2,0.897-2,2v20.586l-2-2v-19.06V33.92l-0.538-0.28C22.476,31.561,20,27.484,20,23c0-6.617,5.383-12,12-12s12,5.383,12,12   C44,27.484,41.524,31.561,37.538,33.64z" fill="#37474f"/><path d="M24,9.144l-0.5-0.866c-1.242,0.717-2.343,1.581-3.328,2.538L17.283,6H8V5H5v3h3V7h8.717l2.727,4.544   c-0.915,1.004-1.683,2.112-2.323,3.283L14.25,11H12v-1H9v3h3v-1h1.75l2.85,3.8l0.026-0.02c-0.484,1.034-0.858,2.113-1.126,3.22   h-3.232l-2-3H8v-1H5v3h3v-1h1.732l2,3h3.55c-0.236,1.313-0.311,2.655-0.233,4h-3.358l-2,4H8v-1H5v3h3v-1h2.309l2-4h2.814   c0.261,2.228,0.964,4.438,2.155,6.5l0.866-0.501C13.725,23.347,16.347,13.562,24,9.144z M7,7H6V6h1V7z M11,12h-1v-1h1V12z M7,17H6   v-1h1V17z M7,29H6v-1h1V29z" fill="#37474f"/><path d="M59,19v-3h-3v1h-2.309l-2,4h-2.814c-0.261-2.228-0.964-4.438-2.155-6.501L45.856,15   c4.419,7.652,1.797,17.438-5.856,21.855l0.5,0.866c1.229-0.709,2.32-1.563,3.298-2.508L46.691,41H56v1h3v-3h-3v1h-8.691   l-2.765-5.53c0.907-0.993,1.669-2.088,2.308-3.246L49.717,36H52v1h3v-3h-3v1h-1.717l-2.854-4.757l-0.088,0.053   c0.5-1.057,0.884-2.162,1.159-3.295h3.191l2,4H56v1h3v-3h-3v1h-1.691l-2-4h-3.592c0.237-1.313,0.311-2.655,0.234-4h3.358l2-4H56v1   H59z M57,16.999h1v1h-1V16.999z M57,40L57,40l1-0.001v1h-1V40z M53,34.999h1v1h-1V34.999z M57,30L57,30l1-0.001v1h-1V30z" fill="#37474f"/></g></svg>